<?xml version="1.0" encoding="UTF-8" standalone="no"?>
<!-- Created with Inkscape (http://www.inkscape.org/) -->

<svg
   xmlns:dc="http://purl.org/dc/elements/1.1/"
   xmlns:cc="http://creativecommons.org/ns#"
   xmlns:rdf="http://www.w3.org/1999/02/22-rdf-syntax-ns#"
   xmlns:svg="http://www.w3.org/2000/svg"
   xmlns="http://www.w3.org/2000/svg"
   xmlns:xlink="http://www.w3.org/1999/xlink"
   xmlns:sodipodi="http://sodipodi.sourceforge.net/DTD/sodipodi-0.dtd"
   xmlns:inkscape="http://www.inkscape.org/namespaces/inkscape"
   width="256"
   height="256"
   viewBox="0 0 67.733331 67.733331"
   version="1.1"
   id="svg8"
   inkscape:version="0.92.4 (5da689c313, 2019-01-14)"
   sodipodi:docname="icon.svg"
   inkscape:export-filename="C:\Users\ianma\Documents\GitHub\LangPad\icon\FileIcon\16.png"
   inkscape:export-xdpi="6.0000005"
   inkscape:export-ydpi="6.0000005">
  <defs
     id="defs2">
    <linearGradient
       inkscape:collect="always"
       id="linearGradient6516">
      <stop
         style="stop-color:#ff651e;stop-opacity:1"
         offset="0"
         id="stop6512" />
      <stop
         style="stop-color:#ff0a0a;stop-opacity:1"
         offset="1"
         id="stop6514" />
    </linearGradient>
    <filter
       style="color-interpolation-filters:sRGB;"
       inkscape:label="Drop Shadow"
       id="filter6952">
      <feFlood
         flood-opacity="0.396078"
         flood-color="rgb(0,0,0)"
         result="flood"
         id="feFlood6942" />
      <feComposite
         in="flood"
         in2="SourceGraphic"
         operator="in"
         result="composite1"
         id="feComposite6944" />
      <feGaussianBlur
         in="composite1"
         stdDeviation="2"
         result="blur"
         id="feGaussianBlur6946" />
      <feOffset
         dx="0"
         dy="0"
         result="offset"
         id="feOffset6948" />
      <feComposite
         in="SourceGraphic"
         in2="offset"
         operator="over"
         result="composite2"
         id="feComposite6950" />
    </filter>
    <linearGradient
       inkscape:collect="always"
       xlink:href="#linearGradient6516"
       id="linearGradient847"
       x1="3.2126689"
       y1="233.94894"
       x2="3.2126687"
       y2="293.22388"
       gradientUnits="userSpaceOnUse"
       gradientTransform="matrix(0.61074322,0,0,0.61074715,2.5899991,99.437825)" />
    <linearGradient
       x1="302.85715"
       y1="366.64789"
       x2="302.85715"
       y2="609.50507"
       id="linearGradient3027"
       xlink:href="#linearGradient5048"
       gradientUnits="userSpaceOnUse"
       gradientTransform="matrix(0.09478704,0,0,0.01705506,3.5913181,285.63143)" />
    <linearGradient
       id="linearGradient5048">
      <stop
         id="stop5050"
         style="stop-color:#000000;stop-opacity:0"
         offset="0" />
      <stop
         id="stop5056"
         style="stop-color:#000000;stop-opacity:1"
         offset="0.5" />
      <stop
         id="stop5052"
         style="stop-color:#000000;stop-opacity:0"
         offset="1" />
    </linearGradient>
    <radialGradient
       cx="605.71429"
       cy="486.64789"
       r="117.14286"
       fx="605.71429"
       fy="486.64789"
       id="radialGradient3024"
       xlink:href="#linearGradient5060"
       gradientUnits="userSpaceOnUse"
       gradientTransform="matrix(-0.03243802,0,0,0.01705506,34.514892,285.63152)" />
    <linearGradient
       id="linearGradient5060">
      <stop
         id="stop5062"
         style="stop-color:#000000;stop-opacity:1"
         offset="0" />
      <stop
         id="stop5064"
         style="stop-color:#000000;stop-opacity:0"
         offset="1" />
    </linearGradient>
    <radialGradient
       cx="605.71429"
       cy="486.64789"
       r="117.14286"
       fx="605.71429"
       fy="486.64789"
       id="radialGradient3021"
       xlink:href="#linearGradient5060"
       gradientUnits="userSpaceOnUse"
       gradientTransform="matrix(0.03243802,0,0,0.01705506,41.185232,285.63152)" />
    <linearGradient
       x1="25.132275"
       y1="0.98520643"
       x2="25.132275"
       y2="47.013336"
       id="linearGradient3016"
       xlink:href="#linearGradient3600-4"
       gradientUnits="userSpaceOnUse"
       gradientTransform="matrix(1.3017527,0,0,1.2599687,6.6079663,230.71881)" />
    <linearGradient
       id="linearGradient3600-4">
      <stop
         id="stop3602-7"
         style="stop-color:#f4f4f4;stop-opacity:1"
         offset="0" />
      <stop
         id="stop3604-6"
         style="stop-color:#dbdbdb;stop-opacity:1"
         offset="1" />
    </linearGradient>
    <linearGradient
       x1="23.99999"
       y1="6.1851754"
       x2="23.99999"
       y2="41.814808"
       id="linearGradient3013"
       xlink:href="#linearGradient3977"
       gradientUnits="userSpaceOnUse"
       gradientTransform="matrix(1.1754183,0,0,1.5112522,9.6399894,226.62098)" />
    <linearGradient
       id="linearGradient3977">
      <stop
         id="stop3979"
         style="stop-color:#ffffff;stop-opacity:1"
         offset="0" />
      <stop
         id="stop3981"
         style="stop-color:#ffffff;stop-opacity:0.23529412"
         offset="0" />
      <stop
         id="stop3983"
         style="stop-color:#ffffff;stop-opacity:0.15686275"
         offset="0.99999994" />
      <stop
         id="stop3985"
         style="stop-color:#ffffff;stop-opacity:0.39215687"
         offset="1" />
    </linearGradient>
    <linearGradient
       xlink:href="#linearGradient3104-6"
       id="linearGradient3148"
       gradientUnits="userSpaceOnUse"
       gradientTransform="matrix(1.0989451,0,0,1.2212551,86.040771,228.11536)"
       x1="-51.786404"
       y1="50.786446"
       x2="-51.786404"
       y2="2.9062471" />
    <linearGradient
       id="linearGradient3104-6">
      <stop
         offset="0"
         style="stop-color:#000000;stop-opacity:0.31782946"
         id="stop3106-3" />
      <stop
         offset="1"
         style="stop-color:#000000;stop-opacity:0.24031007"
         id="stop3108-9" />
    </linearGradient>
    <linearGradient
       gradientTransform="matrix(0.09487857,0,0,0.01707152,5.3201165,285.59484)"
       gradientUnits="userSpaceOnUse"
       xlink:href="#linearGradient5048"
       id="linearGradient3027-1"
       y2="609.50507"
       x2="302.85715"
       y1="366.64789"
       x1="302.85715" />
    <radialGradient
       gradientTransform="matrix(-0.03246935,0,0,0.01707152,36.273552,285.59493)"
       gradientUnits="userSpaceOnUse"
       xlink:href="#linearGradient5060"
       id="radialGradient3024-7"
       fy="486.64789"
       fx="605.71429"
       r="117.14286"
       cy="486.64789"
       cx="605.71429" />
    <radialGradient
       gradientTransform="matrix(0.03246935,0,0,0.01707152,42.950332,285.59493)"
       gradientUnits="userSpaceOnUse"
       xlink:href="#linearGradient5060"
       id="radialGradient3021-9"
       fy="486.64789"
       fx="605.71429"
       r="117.14286"
       cy="486.64789"
       cx="605.71429" />
    <linearGradient
       gradientTransform="matrix(1.3030098,0,0,1.2611853,8.3397108,230.6292)"
       gradientUnits="userSpaceOnUse"
       xlink:href="#linearGradient3600-4"
       id="linearGradient3016-7"
       y2="47.013336"
       x2="25.132275"
       y1="0.98520643"
       x1="25.132275" />
    <linearGradient
       y2="2.9062471"
       x2="-51.786404"
       y1="50.786446"
       x1="-51.786404"
       gradientTransform="matrix(1.0928327,0,0,1.2175789,87.434005,228.03823)"
       gradientUnits="userSpaceOnUse"
       id="linearGradient3148-4"
       xlink:href="#linearGradient3104-6" />
    <linearGradient
       gradientTransform="matrix(2.0729749,0,0,2.0729749,0.26253548,219.21278)"
       gradientUnits="userSpaceOnUse"
       xlink:href="#linearGradient3104"
       id="linearGradient3175"
       y2="6.0420675"
       x2="21.982096"
       y1="36.042068"
       x1="21.982096" />
    <linearGradient
       id="linearGradient3104">
      <stop
         offset="0"
         style="stop-color:#aaaaaa;stop-opacity:1"
         id="stop3106" />
      <stop
         offset="1"
         style="stop-color:#c8c8c8;stop-opacity:1"
         id="stop3108" />
    </linearGradient>
    <linearGradient
       x1="302.85715"
       y1="366.64789"
       x2="302.85715"
       y2="609.50507"
       id="linearGradient3027-3"
       xlink:href="#linearGradient5048"
       gradientUnits="userSpaceOnUse"
       gradientTransform="matrix(0.08420294,0,0,0.01515066,1.5561752,283.77086)" />
    <radialGradient
       cx="605.71429"
       cy="486.64789"
       r="117.14286"
       fx="605.71429"
       fy="486.64789"
       id="radialGradient3024-0"
       xlink:href="#linearGradient5060"
       gradientUnits="userSpaceOnUse"
       gradientTransform="matrix(-0.02881593,0,0,0.01515066,29.026764,283.77094)" />
    <radialGradient
       cx="605.71429"
       cy="486.64789"
       r="117.14286"
       fx="605.71429"
       fy="486.64789"
       id="radialGradient3021-2"
       xlink:href="#linearGradient5060"
       gradientUnits="userSpaceOnUse"
       gradientTransform="matrix(0.02881593,0,0,0.01515066,34.952273,283.77094)" />
    <linearGradient
       x1="25.132275"
       y1="0.98520643"
       x2="25.132275"
       y2="47.013336"
       id="linearGradient3016-6"
       xlink:href="#linearGradient3600-4"
       gradientUnits="userSpaceOnUse"
       gradientTransform="matrix(1.169867,0,0,1.1323163,3.9127095,234.65698)" />
    <linearGradient
       x1="23.99999"
       y1="6.1851754"
       x2="23.99999"
       y2="41.814808"
       id="linearGradient3013-5"
       xlink:href="#linearGradient3977"
       gradientUnits="userSpaceOnUse"
       gradientTransform="matrix(1.0441689,0,0,1.3425028,6.9294772,231.34964)" />
    <linearGradient
       xlink:href="#linearGradient3104-6"
       id="linearGradient3148-3"
       gradientUnits="userSpaceOnUse"
       gradientTransform="matrix(0.97623484,0,0,1.0848874,74.799221,232.67715)"
       x1="-51.786404"
       y1="50.786446"
       x2="-51.786404"
       y2="2.9062471" />
    <filter
       inkscape:collect="always"
       id="filter4123">
      <feGaussianBlur
         inkscape:collect="always"
         stdDeviation="2.028"
         id="feGaussianBlur4125" />
    </filter>
    <filter
       inkscape:collect="always"
       id="filter4111">
      <feGaussianBlur
         inkscape:collect="always"
         stdDeviation="1.5615"
         id="feGaussianBlur4113" />
    </filter>
    <linearGradient
       inkscape:collect="always"
       xlink:href="#linearGradient4518-3"
       id="linearGradient4524-4"
       x1="72"
       y1="0"
       x2="72"
       y2="116.40091"
       gradientUnits="userSpaceOnUse"
       gradientTransform="matrix(0.47130448,0,0,-0.47130447,5.5975418,293.5913)" />
    <linearGradient
       id="linearGradient4518-3">
      <stop
         style="stop-color:#eeecec;stop-opacity:1"
         offset="0"
         id="stop4520-1" />
      <stop
         id="stop5969-4"
         offset="0.40000001"
         style="stop-color:#f4f4f4;stop-opacity:1" />
      <stop
         style="stop-color:#f6f5f5;stop-opacity:1"
         offset="1"
         id="stop4522-9" />
    </linearGradient>
    <radialGradient
       inkscape:collect="always"
       xlink:href="#linearGradient5982-7"
       id="radialGradient5988-0"
       cx="64"
       cy="64.004021"
       fx="63.793392"
       fy="47.274845"
       r="47.5"
       gradientTransform="matrix(0.79377592,0.03972869,0.03245562,-0.64846056,-17.117922,302.38735)"
       gradientUnits="userSpaceOnUse" />
    <linearGradient
       inkscape:collect="always"
       id="linearGradient5982-7">
      <stop
         style="stop-color:#ffffff;stop-opacity:1;"
         offset="0"
         id="stop5984-8" />
      <stop
         style="stop-color:#ffffff;stop-opacity:0.43382353"
         offset="1"
         id="stop5986-6" />
    </linearGradient>
    <clipPath
       clipPathUnits="userSpaceOnUse"
       id="clipPath6093-7">
      <path
         inkscape:connector-curvature="0"
         sodipodi:nodetypes="cccssccc"
         id="path6095-4"
         d="m 17.000001,8 0.782827,110 h 57.5 c 1.675283,0 3.119418,0.18058 4.9,-1.6 C 88.980763,107.60206 99.94047,96.548195 107.19904,89.224043 109.6396,86.761431 110,84.752873 110,82.5 V 8 Z"
         style="fill:#ffffff;fill-opacity:1" />
    </clipPath>
    <filter
       style="color-interpolation-filters:sRGB"
       inkscape:collect="always"
       id="filter6171-8"
       x="-0.47870937"
       width="1.9574188"
       y="-0.51275069"
       height="2.0255013">
      <feGaussianBlur
         inkscape:collect="always"
         stdDeviation="10.140743"
         id="feGaussianBlur6173-8" />
    </filter>
    <clipPath
       clipPathUnits="userSpaceOnUse"
       id="clipPath905">
      <path
         inkscape:connector-curvature="0"
         sodipodi:nodetypes="cccssccc"
         id="path903"
         d="m 17.000001,8 0.782827,110 h 57.5 c 1.675283,0 3.119418,0.18058 4.9,-1.6 C 88.980763,107.60206 99.94047,96.548195 107.19904,89.224043 109.6396,86.761431 110,84.752873 110,82.5 V 8 Z"
         style="fill:#ffffff;fill-opacity:1" />
    </clipPath>
    <filter
       style="color-interpolation-filters:sRGB"
       inkscape:collect="always"
       id="filter6118-4"
       x="-0.1126375"
       width="1.225275"
       y="-0.12064722"
       height="1.2412944">
      <feGaussianBlur
         inkscape:collect="always"
         stdDeviation="2.3860572"
         id="feGaussianBlur6120-3" />
    </filter>
    <linearGradient
       inkscape:collect="always"
       xlink:href="#linearGradient3897-7"
       id="linearGradient3895-3"
       gradientUnits="userSpaceOnUse"
       gradientTransform="matrix(0.63433677,0,0,-0.63433678,-12.384889,311.72204)"
       x1="86.73793"
       y1="93.621468"
       x2="95.18235"
       y2="102.06589" />
    <linearGradient
       id="linearGradient3897-7">
      <stop
         style="stop-color:#fcfcfc;stop-opacity:1"
         offset="0"
         id="stop3899-4" />
      <stop
         id="stop3901-5"
         offset="0.52275378"
         style="stop-color:#f8f8f8;stop-opacity:1" />
      <stop
         style="stop-color:#f0efef;stop-opacity:1;"
         offset="0.72337759"
         id="stop3903-2" />
      <stop
         style="stop-color:#e3e1e1;stop-opacity:1;"
         offset="0.89024991"
         id="stop3905-5" />
      <stop
         style="stop-color:#cecbcb;stop-opacity:1"
         offset="1"
         id="stop3907-4" />
    </linearGradient>
    <radialGradient
       inkscape:collect="always"
       xlink:href="#linearGradient3913-5"
       id="radialGradient3919-5"
       cx="90.75"
       cy="110.25299"
       fx="90.75"
       fy="110.25299"
       r="18.750002"
       gradientTransform="matrix(1.3067347,0,0,1.3067347,-27.83617,-33.818441)"
       gradientUnits="userSpaceOnUse" />
    <linearGradient
       inkscape:collect="always"
       id="linearGradient3913-5">
      <stop
         style="stop-color:#ffffff;stop-opacity:1;"
         offset="0"
         id="stop3915-4" />
      <stop
         style="stop-color:#ffffff;stop-opacity:0;"
         offset="1"
         id="stop3917-7" />
    </linearGradient>
    <clipPath
       clipPathUnits="userSpaceOnUse"
       id="clipPath3889-6">
      <path
         sodipodi:nodetypes="cscscssc"
         inkscape:connector-curvature="0"
         id="path3891-5"
         d="m 112,82.502986 c 0,4.465301 -2.79749,6.409952 -5.27972,8.093625 -5.10854,3.46508 -14.939114,3.32536 -20.720284,3.40638 -0.081,5.781159 0.16586,15.504599 -3.29922,20.613139 -1.68367,2.48224 -5.29051,5.38687 -8.20078,5.38687 2.31803,0 4.74284,-1.33476 7.58402,-4.08481 9.14197,-8.84873 17.36714,-16.13535 25.673154,-25.297529 C 109.67612,88.503916 112,86.97878 112,82.502986 Z"
         style="fill:url(#linearGradient3893);fill-opacity:1;stroke:none" />
    </clipPath>
    <filter
       style="color-interpolation-filters:sRGB"
       inkscape:collect="always"
       id="filter3909-6">
      <feGaussianBlur
         inkscape:collect="always"
         stdDeviation="0.43040059"
         id="feGaussianBlur3911-9" />
    </filter>
  </defs>
  <sodipodi:namedview
     id="base"
     pagecolor="#ffffff"
     bordercolor="#666666"
     borderopacity="1.0"
     inkscape:pageopacity="0.0"
     inkscape:pageshadow="2"
     inkscape:zoom="2.3478155"
     inkscape:cx="-129.50868"
     inkscape:cy="118.30602"
     inkscape:document-units="mm"
     inkscape:current-layer="layer1"
     showgrid="false"
     units="px"
     inkscape:window-width="2880"
     inkscape:window-height="1706"
     inkscape:window-x="1909"
     inkscape:window-y="-11"
     inkscape:window-maximized="1" />
  <metadata
     id="metadata5">
    <rdf:RDF>
      <cc:Work
         rdf:about="">
        <dc:format>image/svg+xml</dc:format>
        <dc:type
           rdf:resource="http://purl.org/dc/dcmitype/StillImage" />
        <dc:title />
      </cc:Work>
    </rdf:RDF>
  </metadata>
  <g
     inkscape:label="Layer 1"
     inkscape:groupmode="layer"
     id="layer1"
     transform="translate(0,-229.26668)">
    <path
       transform="matrix(0.47130446,0,0,-0.47130447,5.5975435,293.59131)"
       sodipodi:nodetypes="ccsssccccccc"
       inkscape:connector-curvature="0"
       id="path5990"
       d="M 13.333,5.3364 V 123.1668 L 63.1875,123.6 c 2.115476,0.0184 4.528919,-1.77169 7,-4.25 0.71234,-0.71442 1.440746,-1.39395 2.15625,-2.09375 0.415612,-0.40649 0.832187,-0.81443 1.25,-1.21875 7.773958,-7.40962 26.98341,-25.122599 34.21875,-33.099999 0.42065,-0.42064 0.81207,-0.8111 1.15625,-1.1875 1.46444,-1.49766 2.76158,-2.8378 2.99375,-5.8625 L 112,75.156251 111.9972,5.3364 Z"
       style="opacity:0.45606695;fill:#000000;fill-opacity:1;stroke-width:1.88570726;stroke-miterlimit:4;stroke-dasharray:none;filter:url(#filter4123)" />
    <path
       transform="matrix(0.44413034,0,0,-0.44413034,7.3507845,291.77394)"
       inkscape:connector-curvature="0"
       style="fill:#000000;fill-opacity:0.84716157;stroke-width:1.88570726;stroke-miterlimit:4;stroke-dasharray:none;filter:url(#filter4111)"
       d="m 13.333,5.3364 v 118.3304 l 49.3318,0.3 c 1.527964,0 3.65713,-0.98408 6.387944,-2.83388 C 82.175824,111.57445 97.49744,91.890146 108.75009,80.500071 110.49334,78.756821 112,77.462561 112,73.300001 L 111.9972,5.3364 Z"
       id="path3722"
       sodipodi:nodetypes="cccccccc" />
    <path
       inkscape:connector-curvature="0"
       sodipodi:nodetypes="cccssccc"
       id="path34"
       d="M 11.881445,291.07624 V 235.7779 h 23.250298 c 0.789569,0 1.844827,0.26613 3.299129,1.6967 4.180493,4.11225 15.11741,14.85485 18.538403,18.30676 1.150248,1.16064 1.414363,2.1073 1.414363,3.16906 l -0.0016,32.12582 z"
       style="fill:#ffffff;fill-opacity:1;stroke:#d3d3d3;stroke-width:0.5291667;stroke-miterlimit:4;stroke-dasharray:none;stroke-opacity:0.43529412" />
    <path
       sodipodi:nodetypes="ccsssccscccc"
       inkscape:connector-curvature="0"
       id="path3967"
       d="m 13.374067,289.82088 c -0.160174,0 -0.235652,-0.11068 -0.235652,-0.23564 v -51.82876 c 0,-0.38723 0.320166,-0.70696 0.706956,-0.70696 h 22.946637 c 0.02502,0 0.381935,-0.0112 0.706956,-0.0149 0.837821,0.0191 1.476115,0.35524 2.053017,0.75091 0.495751,0.13709 12.244696,12.54593 16.543522,16.87705 0.642098,0.64694 1.030012,1.86079 1.030012,2.30733 l 2.7e-5,32.61518 c 0,0.1521 -0.07692,0.23564 -0.235652,0.23564 z"
       style="fill:url(#linearGradient4524-4);fill-opacity:1;stroke-width:0.47130451;stroke-miterlimit:4;stroke-dasharray:none" />
    <path
       style="opacity:0.84653476;fill:url(#radialGradient5988-0);fill-opacity:1;stroke:#d3d3d3;stroke-width:0.5291667;stroke-miterlimit:4;stroke-dasharray:none;stroke-opacity:0.43529412"
       d="m 13.374067,289.82088 c -0.160174,0 -0.235652,-0.11068 -0.235652,-0.23564 v -51.82876 c 0,-0.38723 0.320166,-0.70671 0.706956,-0.70696 l 22.386962,-0.0149 c 0.02503,-2e-5 1.542997,0.004 1.868014,-4e-5 3.082789,2.12261 14.124007,13.64585 18.339933,17.88843 0.696043,0.78069 0.215668,0.17432 0.685231,0.7576 l 3.1e-5,33.90448 c 0,0.1521 -0.07692,0.23564 -0.235652,0.23564 z"
       id="path5980"
       inkscape:connector-curvature="0"
       sodipodi:nodetypes="ccssscccccc" />
    <path
       transform="matrix(0.60205395,0,0,-0.60205395,-9.0488508,306.79402)"
       sodipodi:nodetypes="cscscssc"
       inkscape:connector-curvature="0"
       id="path6153"
       d="m 114.4,82.502986 c 0,4.465301 -4.99749,5.909952 -7.47972,7.593625 -5.10854,3.46508 -18.362065,-1.446073 -24.143235,-1.365053 -0.081,5.781159 3.371639,20.976032 -0.09344,26.084572 -1.68367,2.48224 -5.573338,8.68687 -8.483608,8.68687 -2.091359,1.5337 3.488204,8.21101 6.734971,5.31989 9.501888,-8.46107 35.131682,-30.022704 43.350822,-39.262889 2.04044,-2.29392 -4.90514,-9.844666 -9.88579,-7.057015 z"
       style="opacity:0.34728035;fill:#000000;fill-opacity:1;stroke:none;stroke-width:1.88570726;stroke-miterlimit:4;stroke-dasharray:none;filter:url(#filter6171-8)"
       clip-path="url(#clipPath6093-7)" />
    <path
       transform="matrix(0.62682379,0,0,-0.62682379,-11.823539,311.1033)"
       clip-path="url(#clipPath6093-7)"
       style="opacity:0.40099009;fill:#000000;fill-opacity:1;stroke:none;stroke-width:1.88570726;stroke-miterlimit:4;stroke-dasharray:none;filter:url(#filter6118-4)"
       d="m 113.9,82.502986 c 0,4.465301 -5.09749,6.009952 -7.57972,7.693625 -5.10854,3.46508 -16.139114,2.12536 -21.920284,2.20638 -0.081,5.781159 1.66586,17.304599 -1.79922,22.413139 -1.68367,2.48224 -4.69051,7.98687 -7.60078,7.98687 -2.091359,1.5337 3.488204,11.21101 6.734971,8.31989 9.501888,-8.46107 45.998943,-30.20138 54.218083,-39.441569 2.04044,-2.29392 -17.0724,-11.965986 -22.05305,-9.178335 z"
       id="path6081"
       inkscape:connector-curvature="0"
       sodipodi:nodetypes="cscscssc" />
    <path
       sodipodi:nodetypes="cscscssc"
       inkscape:connector-curvature="0"
       id="path6011"
       d="m 58.380721,259.38846 c 0,-2.79896 -1.753526,-4.01792 -3.309448,-5.07327 -3.202156,-2.17201 -9.403322,-2.14838 -13.027097,-2.19915 -0.05077,-3.62375 0.1431,-9.6547 -2.028902,-12.85686 -1.055363,-1.55592 -3.316215,-3.37662 -5.140443,-3.37662 1.452996,0 2.972924,0.83666 4.753844,2.56045 5.730405,5.54661 10.886137,10.11403 16.092546,15.85711 1.202843,1.32682 2.6595,2.28281 2.6595,5.08834 z"
       style="fill:url(#linearGradient3895-3);fill-opacity:1;stroke:none;stroke-width:0.47130451;stroke-miterlimit:4;stroke-dasharray:none" />
    <path
       sodipodi:nodetypes="cscsccccsscccc"
       inkscape:connector-curvature="0"
       id="path6122"
       d="m 58.392475,259.13179 c -0.198338,-2.44408 -2.396285,-3.44932 -3.854963,-4.43872 -2.36616,-1.60494 -9.979774,-1.32023 -13.750114,-1.32023 0,-3.77035 0.763111,-11.0743 -1.313243,-14.24458 -0.901323,-1.37619 -2.193544,-2.73301 -3.862804,-3.10277 1.241398,0.22708 2.49785,1.16676 3.992084,2.61307 0.212566,0.24352 0.359983,0.42558 0.693423,0.94024 2.171997,3.20214 1.932197,8.67783 1.982972,12.30159 3.623773,0.0507 9.439457,0.0687 12.641611,2.24072 0.291738,0.1978 1.187202,0.61913 1.445618,0.87754 0.962977,0.96298 1.881537,2.01425 2.025416,4.13314 z m -22.781124,-23.1063 c -0.09882,-0.0218 -0.196477,-0.026 -0.293822,-0.0392 0.09839,0.0112 0.194593,0.0211 0.293822,0.0392 z"
       style="fill:#ffffff;fill-opacity:1;stroke:none;stroke-width:0.47130451;stroke-miterlimit:4;stroke-dasharray:none" />
    <path
       transform="matrix(0.62682379,0,0,-0.62682379,-11.823539,311.1033)"
       clip-path="url(#clipPath3889-6)"
       sodipodi:nodetypes="cc"
       inkscape:connector-curvature="0"
       id="path3873"
       d="M 117.31456,81.861283 72.639105,125.34835"
       style="fill:none;stroke:url(#radialGradient3919-5);stroke-width:1.20000005;stroke-linecap:butt;stroke-linejoin:miter;stroke-miterlimit:4;stroke-dasharray:none;stroke-opacity:1;filter:url(#filter3909-6)" />
    <g
       id="g1023"
       transform="matrix(0.81736886,0,0,0.81736886,4.9312815,58.691573)">
      <rect
         ry="6.1074715"
         y="242.32147"
         x="4.552115"
         height="36.201988"
         width="36.201756"
         id="rect831"
         style="fill:url(#linearGradient847);fill-opacity:1;stroke:#84240c;stroke-width:1.61850632;stroke-linecap:round;stroke-miterlimit:10;stroke-dasharray:none;stroke-opacity:1;paint-order:stroke markers fill" />
      <g
         style="fill:#ffffff;fill-opacity:0.98039216;stroke:#000000;stroke-width:2.02065444;stroke-linecap:round;stroke-miterlimit:4;stroke-dasharray:none;stroke-opacity:0.19607843;paint-order:markers stroke fill"
         transform="matrix(0.52375602,0,0,0.52375939,6.7091099,123.52212)"
         id="g6485">
        <rect
           x="12.416248"
           y="254.48242"
           width="3.7624376"
           height="13.795605"
           id="rect5873"
           style="fill:#ffffff;fill-opacity:0.98039216;stroke:#000000;stroke-width:2.02065444;stroke-linecap:round;stroke-miterlimit:4;stroke-dasharray:none;stroke-opacity:0.19607843;paint-order:markers stroke fill" />
        <polygon
           style="fill:#ffffff;fill-opacity:0.98039216;stroke:#000000;stroke-width:3.94235657;stroke-linecap:round;stroke-miterlimit:4;stroke-dasharray:none;stroke-opacity:0.19607843;paint-order:markers stroke fill"
           transform="matrix(0.62707294,0,0,0.62707294,-2.520629,230.0266)"
           points="27.13,17.09 62.01,17.09 62.01,82.91 27.13,82.91 27.13,75 21.13,75 21.13,88.91 84.25,88.91 84.25,11.09 21.13,11.09 21.13,25 27.13,25 "
           id="polygon5875" />
        <rect
           x="9.0425968"
           y="248.21173"
           width="10.66024"
           height="3.7624376"
           id="rect5877"
           style="fill:#ffffff;fill-opacity:0.98039216;stroke:#000000;stroke-width:2.02065444;stroke-linecap:round;stroke-miterlimit:4;stroke-dasharray:none;stroke-opacity:0.19607843;paint-order:markers stroke fill" />
        <rect
           x="9.0425968"
           y="270.78635"
           width="10.66024"
           height="3.7624376"
           id="rect5879"
           style="fill:#ffffff;fill-opacity:0.98039216;stroke:#000000;stroke-width:2.02065444;stroke-linecap:round;stroke-miterlimit:4;stroke-dasharray:none;stroke-opacity:0.19607843;paint-order:markers stroke fill" />
      </g>
      <rect
         ry="5.9503236"
         y="242.78723"
         x="5.0178576"
         height="35.270496"
         width="35.270267"
         id="rect831-8"
         style="opacity:1;fill:none;fill-opacity:1;stroke:#ffffff;stroke-width:1.61850632;stroke-linecap:round;stroke-miterlimit:10;stroke-dasharray:none;stroke-opacity:0.23529412;paint-order:markers stroke fill" />
    </g>
  </g>
</svg>
